<svg xmlns="http://www.w3.org/2000/svg" width="204" height="71" fill="#fff" xmlns:v="https://vecta.io/nano"><path d="M13.864 25.288c-1.472 0-2.731-.32-3.776-.96-1.045-.661-1.845-1.643-2.4-2.944-.533-1.323-.8-3.008-.8-5.056 0-2.069.256-3.755.768-5.056.512-1.323 1.28-2.304 2.304-2.944 1.045-.64 2.347-.96 3.904-.96 1.579 0 3.008.373 4.288 1.12 1.301.725 2.325 1.76 3.072 3.104.768 1.323 1.152 2.901 1.152 4.736s-.384 3.424-1.152 4.768c-.747 1.344-1.771 2.379-3.072 3.104-1.28.725-2.709 1.088-4.288 1.088zm-10.912 5.92V7.656h5.792V10.6l-.032 5.728.32 5.76v9.12h-6.08zm9.632-10.752c.683 0 1.291-.16 1.824-.48.555-.32.992-.789 1.312-1.408.341-.619.512-1.365.512-2.24s-.171-1.621-.512-2.24c-.32-.619-.757-1.088-1.312-1.408-.533-.32-1.141-.48-1.824-.48s-1.301.16-1.856.48c-.533.32-.971.789-1.312 1.408-.32.619-.48 1.365-.48 2.24s.16 1.621.48 2.24c.341.619.779 1.088 1.312 1.408.555.32 1.173.48 1.856.48zM36.379 25v-3.232l-.416-.8v-5.952c0-.96-.299-1.696-.896-2.208-.576-.533-1.504-.8-2.784-.8-.832 0-1.675.139-2.528.416-.853.256-1.579.619-2.176 1.088l-2.048-4.128c.981-.64 2.155-1.131 3.52-1.472 1.387-.363 2.763-.544 4.128-.544 2.816 0 4.992.651 6.528 1.952 1.557 1.28 2.336 3.296 2.336 6.048V25h-5.664zm-5.12.288c-1.387 0-2.56-.235-3.52-.704s-1.696-1.109-2.208-1.92c-.491-.811-.736-1.717-.736-2.72 0-1.067.267-1.984.8-2.752.555-.789 1.397-1.387 2.528-1.792 1.131-.427 2.592-.64 4.384-.64h4.096v3.168h-3.264c-.981 0-1.675.16-2.08.48-.384.32-.576.747-.576 1.28s.203.96.608 1.28.96.48 1.664.48c.661 0 1.259-.16 1.792-.48.555-.341.96-.853 1.216-1.536l.832 2.24c-.32 1.195-.949 2.101-1.888 2.72-.917.597-2.133.896-3.648.896zm24.664 0c-1.92 0-3.637-.384-5.152-1.152-1.493-.768-2.667-1.824-3.52-3.168-.853-1.365-1.28-2.923-1.28-4.672s.427-3.296 1.28-4.64 2.027-2.389 3.52-3.136c1.515-.768 3.232-1.152 5.152-1.152 1.963 0 3.659.416 5.088 1.248s2.443 2.005 3.04 3.52l-4.704 2.4c-.405-.811-.907-1.397-1.504-1.76a3.54 3.54 0 0 0-1.952-.576c-.704 0-1.344.16-1.92.48s-1.035.789-1.376 1.408c-.32.597-.48 1.333-.48 2.208 0 .896.16 1.653.48 2.272.341.619.8 1.088 1.376 1.408s1.216.48 1.92.48a3.69 3.69 0 0 0 1.952-.544c.597-.384 1.099-.981 1.504-1.792l4.704 2.4c-.597 1.515-1.611 2.688-3.04 3.52s-3.125 1.248-5.088 1.248zm22.611-17.92c1.344 0 2.56.277 3.648.832 1.088.533 1.941 1.365 2.56 2.496.64 1.131.96 2.592.96 4.384V25h-6.08v-8.928c0-1.237-.256-2.133-.768-2.688-.491-.576-1.184-.864-2.08-.864a3.54 3.54 0 0 0-1.76.448c-.533.277-.949.715-1.248 1.312s-.448 1.376-.448 2.336V25h-6.08V1.256h6.08v11.328l-1.408-1.44c.661-1.259 1.568-2.197 2.72-2.816 1.152-.64 2.453-.96 3.904-.96zm20.868 17.92c-1.899 0-3.584-.384-5.056-1.152s-2.635-1.824-3.488-3.168c-.832-1.365-1.248-2.923-1.248-4.672s.416-3.296 1.248-4.64c.853-1.344 2.016-2.389 3.488-3.136 1.472-.768 3.157-1.152 5.056-1.152s3.584.384 5.056 1.152c1.494.747 2.656 1.792 3.488 3.136s1.248 2.891 1.248 4.64-.416 3.307-1.248 4.672c-.832 1.344-1.994 2.4-3.488 3.168-1.472.768-3.157 1.152-5.056 1.152zm0-4.832c.704 0 1.323-.16 1.856-.48.555-.32.992-.789 1.312-1.408.32-.64.48-1.397.48-2.272s-.16-1.611-.48-2.208c-.32-.619-.757-1.088-1.312-1.408-.533-.32-1.152-.48-1.856-.48-.683 0-1.301.16-1.856.48-.533.32-.971.789-1.312 1.408-.32.597-.48 1.333-.48 2.208s.16 1.632.48 2.272c.341.619.779 1.088 1.312 1.408.555.32 1.173.48 1.856.48zM112.971 25V1.256h6.08V25h-6.08zm19.855.288c-1.92 0-3.637-.384-5.152-1.152-1.493-.768-2.667-1.824-3.52-3.168-.853-1.365-1.28-2.923-1.28-4.672s.427-3.296 1.28-4.64 2.027-2.389 3.52-3.136c1.515-.768 3.232-1.152 5.152-1.152 1.963 0 3.659.416 5.088 1.248s2.443 2.005 3.04 3.52l-4.704 2.4c-.405-.811-.907-1.397-1.504-1.76a3.54 3.54 0 0 0-1.952-.576c-.704 0-1.344.16-1.92.48s-1.035.789-1.376 1.408c-.32.597-.48 1.333-.48 2.208 0 .896.16 1.653.48 2.272.341.619.8 1.088 1.376 1.408s1.216.48 1.92.48a3.69 3.69 0 0 0 1.952-.544c.597-.384 1.099-.981 1.504-1.792l4.704 2.4c-.597 1.515-1.611 2.688-3.04 3.52s-3.125 1.248-5.088 1.248zM143.245 25v-3.584l9.728-11.2 1.024 1.952h-10.528V7.656h15.456v3.552l-9.76 11.232-1.024-1.984h11.104V25h-16zm22.3 6.496c-.917 0-1.845-.149-2.784-.448-.917-.277-1.664-.651-2.24-1.12l2.112-4.256a3.87 3.87 0 0 0 1.248.736c.491.192.971.288 1.44.288.662 0 1.184-.149 1.568-.448s.715-.768.992-1.408l.8-2.016.48-.608 5.888-14.56h5.792l-7.488 18.048c-.597 1.493-1.29 2.656-2.08 3.488-.768.853-1.632 1.451-2.592 1.792-.938.341-1.984.512-3.136.512zm2.368-5.76l-7.648-18.08h6.24l5.632 14.016-4.224 4.064zm20.516-3.936l.16-7.264 7.072-6.88h7.2l-7.84 8.096-3.104 2.496-3.488 3.552zm-5.056 3.2V1.256h6.08V25h-6.08zm12.736 0l-5.312-6.656 3.776-4.672L203.469 25h-7.36zM7.08 53L.904 35.656h5.76l4.896 14.496H8.808l5.088-14.496h5.184l4.896 14.496h-2.688l5.056-14.496h5.344L25.512 53h-5.888l-4.16-12h1.792l-4.288 12H7.08zm27.426 0V35.656h6.08V53h-6.08zm3.04-19.264c-1.109 0-2.005-.309-2.688-.928a2.98 2.98 0 0 1-1.024-2.304 2.98 2.98 0 0 1 1.024-2.304c.683-.619 1.579-.928 2.688-.928s2.005.299 2.688.896c.683.576 1.024 1.323 1.024 2.24a3.15 3.15 0 0 1-1.024 2.4c-.661.619-1.557.928-2.688.928zm19.247 1.632c1.344 0 2.56.277 3.648.832 1.088.533 1.941 1.365 2.56 2.496.64 1.131.96 2.592.96 4.384V53h-6.08v-8.928c0-1.237-.256-2.133-.768-2.688-.491-.576-1.184-.864-2.08-.864a3.54 3.54 0 0 0-1.76.448c-.533.277-.949.715-1.248 1.312s-.448 1.376-.448 2.336V53h-6.08V35.656h5.792v4.928l-1.12-1.44c.661-1.259 1.568-2.197 2.72-2.816 1.152-.64 2.453-.96 3.904-.96zM68.738 53V35.656h6.08V53h-6.08zm3.04-19.264c-1.109 0-2.005-.309-2.688-.928a2.98 2.98 0 0 1-1.024-2.304A2.98 2.98 0 0 1 69.09 28.2c.683-.619 1.579-.928 2.688-.928s2.005.299 2.688.896c.683.576 1.024 1.323 1.024 2.24a3.15 3.15 0 0 1-1.024 2.4c-.661.619-1.557.928-2.688.928zm17.039 19.552c-2.048 0-3.84-.384-5.376-1.152-1.515-.789-2.699-1.856-3.552-3.2-.832-1.365-1.248-2.912-1.248-4.64s.405-3.264 1.216-4.608a8.46 8.46 0 0 1 3.424-3.168c1.451-.768 3.083-1.152 4.896-1.152 1.707 0 3.264.352 4.672 1.056a7.97 7.97 0 0 1 3.36 3.04c.832 1.344 1.248 2.976 1.248 4.896l-.032.736-.064.768H83.634v-3.2H94.13l-2.304.896c.021-.789-.128-1.472-.448-2.048a3.24 3.24 0 0 0-1.28-1.344c-.533-.32-1.163-.48-1.888-.48s-1.365.16-1.92.48a3.26 3.26 0 0 0-1.248 1.376c-.299.576-.448 1.259-.448 2.048v.928c0 .853.171 1.589.512 2.208a3.71 3.71 0 0 0 1.536 1.44c.661.32 1.451.48 2.368.48.853 0 1.579-.117 2.176-.352.619-.256 1.227-.64 1.824-1.152l3.2 3.328c-.832.917-1.856 1.621-3.072 2.112-1.216.469-2.656.704-4.32.704zm21.268 0c-1.92 0-3.638-.384-5.152-1.152-1.494-.768-2.667-1.824-3.52-3.168-.854-1.365-1.28-2.923-1.28-4.672s.426-3.296 1.28-4.64 2.026-2.389 3.52-3.136c1.514-.768 3.232-1.152 5.152-1.152 1.962 0 3.658.416 5.088 1.248s2.442 2.005 3.04 3.52l-4.704 2.4c-.406-.811-.907-1.397-1.504-1.76a3.54 3.54 0 0 0-1.952-.576c-.704 0-1.344.16-1.92.48s-1.035.789-1.376 1.408c-.32.597-.48 1.333-.48 2.208 0 .896.16 1.653.48 2.272.341.619.8 1.088 1.376 1.408s1.216.48 1.92.48 1.354-.181 1.952-.544c.597-.384 1.098-.981 1.504-1.792l4.704 2.4c-.598 1.515-1.611 2.688-3.04 3.52s-3.126 1.248-5.088 1.248zm16.371-3.488l.16-7.264 7.072-6.88h7.2l-7.84 8.096-3.104 2.496-3.488 3.552zM121.4 53V29.256h6.08V53h-6.08zm12.736 0l-5.312-6.656 3.776-4.672L141.496 53h-7.36zm10.161 0V35.656h6.08V53h-6.08zm3.04-19.264c-1.109 0-2.005-.309-2.688-.928a2.98 2.98 0 0 1-1.024-2.304 2.98 2.98 0 0 1 1.024-2.304c.683-.619 1.579-.928 2.688-.928s2.005.299 2.688.896a2.79 2.79 0 0 1 1.024 2.24 3.15 3.15 0 0 1-1.024 2.4c-.661.619-1.557.928-2.688.928z"/><path d="M5.464 68.072c-.528 0-1.012-.12-1.452-.36-.432-.248-.78-.612-1.044-1.092-.256-.48-.384-1.08-.384-1.8s.124-1.32.372-1.8c.256-.48.6-.84 1.032-1.08.44-.24.932-.36 1.476-.36.624 0 1.176.136 1.656.408a3 3 0 0 1 1.14 1.14c.28.48.42 1.044.42 1.692s-.14 1.216-.42 1.704a3 3 0 0 1-1.14 1.14c-.48.272-1.032.408-1.656.408zm-3.372 2.256V61.64h1.104v1.716l-.072 1.476.12 1.476v4.02H2.092zm3.276-3.264a2.15 2.15 0 0 0 1.092-.276c.328-.184.584-.444.768-.78.192-.344.288-.74.288-1.188 0-.456-.096-.848-.288-1.176-.184-.336-.44-.596-.768-.78a2.15 2.15 0 0 0-1.092-.276c-.4 0-.764.092-1.092.276-.32.184-.576.444-.768.78-.184.328-.276.72-.276 1.176a2.48 2.48 0 0 0 .276 1.188c.192.336.448.596.768.78.328.184.692.276 1.092.276zm5.384.936v-6.36h1.104v1.728l-.108-.432c.176-.44.472-.776.888-1.008s.928-.348 1.536-.348v1.116c-.048-.008-.096-.012-.144-.012h-.12c-.616 0-1.104.184-1.464.552s-.54.9-.54 1.596V68h-1.152zm7.985.072c-.64 0-1.208-.14-1.704-.42s-.888-.664-1.176-1.152c-.288-.496-.432-1.056-.432-1.68 0-.632.144-1.192.432-1.68A3.04 3.04 0 0 1 17.033 62c.496-.28 1.064-.42 1.704-.42.632 0 1.196.14 1.692.42.504.272.896.652 1.176 1.14.288.48.432 1.04.432 1.68 0 .632-.144 1.192-.432 1.68-.28.488-.672.872-1.176 1.152-.496.28-1.06.42-1.692.42zm0-1.008a2.15 2.15 0 0 0 1.092-.276c.328-.184.584-.444.768-.78a2.48 2.48 0 0 0 .276-1.188c0-.456-.092-.848-.276-1.176-.184-.336-.44-.596-.768-.78a2.15 2.15 0 0 0-1.092-.276 2.15 2.15 0 0 0-1.092.276c-.32.184-.576.444-.768.78-.192.328-.288.72-.288 1.176 0 .448.096.844.288 1.188.192.336.448.596.768.78a2.15 2.15 0 0 0 1.092.276zm4.557 3.336a2.92 2.92 0 0 1-.756-.096 1.73 1.73 0 0 1-.624-.288l.372-.888c.24.2.552.3.936.3.304 0 .536-.096.696-.288.168-.184.252-.46.252-.828V61.64h1.152v6.648c0 .648-.176 1.16-.528 1.536-.344.384-.844.576-1.5.576zm1.452-9.984c-.224 0-.412-.072-.564-.216a.72.72 0 0 1-.216-.528c0-.216.072-.396.216-.54.152-.144.34-.216.564-.216s.408.072.552.216a.66.66 0 0 1 .228.516c0 .216-.072.4-.216.552-.144.144-.332.216-.564.216zm6.086 7.656c-.68 0-1.28-.14-1.8-.42a3.08 3.08 0 0 1-1.2-1.152c-.28-.488-.42-1.048-.42-1.68s.136-1.192.408-1.68A3 3 0 0 1 28.96 62c.488-.28 1.036-.42 1.644-.42.616 0 1.16.136 1.632.408s.84.656 1.104 1.152c.272.488.408 1.06.408 1.716 0 .048-.004.104-.012.168 0 .064-.004.124-.012.18h-5.412v-.828h4.812l-.468.288c.008-.408-.076-.772-.252-1.092a1.87 1.87 0 0 0-.732-.744c-.304-.184-.66-.276-1.068-.276-.4 0-.756.092-1.068.276-.312.176-.556.428-.732.756-.176.32-.264.688-.264 1.104v.192c0 .424.096.804.288 1.14.2.328.476.584.828.768s.756.276 1.212.276c.376 0 .716-.064 1.02-.192.312-.128.584-.32.816-.576l.636.744c-.288.336-.648.592-1.08.768-.424.176-.9.264-1.428.264zm5.932-1.608l.024-1.476 3.66-3.348h1.392l-2.808 2.76-.624.528-1.644 1.536zM35.828 68v-8.904h1.152V68h-1.152zm4.86 0l-2.496-3.096.744-.924L42.104 68h-1.416zm5.199.072c-.64 0-1.136-.172-1.488-.516s-.528-.836-.528-1.476v-5.832h1.152v5.784c0 .344.084.608.252.792.176.184.424.276.744.276.36 0 .66-.1.9-.3l.36.828a1.67 1.67 0 0 1-.636.336c-.24.072-.492.108-.756.108zm-3.096-5.484v-.948h4.056v.948h-4.056zm8.874 5.484c-.64 0-1.208-.14-1.704-.42s-.888-.664-1.176-1.152c-.288-.496-.432-1.056-.432-1.68 0-.632.144-1.192.432-1.68A3.04 3.04 0 0 1 49.96 62c.496-.28 1.064-.42 1.704-.42.632 0 1.196.14 1.692.42.504.272.896.652 1.176 1.14.288.48.432 1.04.432 1.68 0 .632-.144 1.192-.432 1.68-.28.488-.672.872-1.176 1.152-.496.28-1.06.42-1.692.42zm0-1.008a2.15 2.15 0 0 0 1.092-.276c.328-.184.584-.444.768-.78a2.48 2.48 0 0 0 .276-1.188c0-.456-.092-.848-.276-1.176-.184-.336-.44-.596-.768-.78a2.15 2.15 0 0 0-1.092-.276 2.15 2.15 0 0 0-1.092.276c-.32.184-.576.444-.768.78-.192.328-.288.72-.288 1.176 0 .448.096.844.288 1.188.192.336.448.596.768.78a2.15 2.15 0 0 0 1.092.276zm6.541.936l-2.364-6.36h1.092l2.1 5.76h-.516l2.184-5.76h.972l2.136 5.76h-.504l2.148-5.76h1.032L64.11 68h-1.104l-2.004-5.256h.336L59.31 68h-1.104zm13.678 0v-1.344l-.06-.252v-2.292c0-.488-.144-.864-.432-1.128-.28-.272-.704-.408-1.272-.408-.376 0-.744.064-1.104.192a2.76 2.76 0 0 0-.912.492l-.48-.864c.328-.264.72-.464 1.176-.6a4.87 4.87 0 0 1 1.452-.216c.872 0 1.544.212 2.016.636s.708 1.072.708 1.944V68h-1.092zm-2.088.072c-.472 0-.888-.08-1.248-.24-.352-.16-.624-.38-.816-.66-.192-.288-.288-.612-.288-.972 0-.344.08-.656.24-.936.168-.28.436-.504.804-.672.376-.168.88-.252 1.512-.252h2.016v.828h-1.968c-.576 0-.964.096-1.164.288a.93.93 0 0 0-.3.696.91.91 0 0 0 .372.756c.248.184.592.276 1.032.276.432 0 .808-.096 1.128-.288a1.63 1.63 0 0 0 .708-.84l.228.792a1.82 1.82 0 0 1-.804.9c-.384.216-.868.324-1.452.324zm9.188-6.492c.52 0 .976.1 1.368.3.4.2.712.504.936.912s.336.924.336 1.548V68h-1.152v-3.528c0-.616-.152-1.08-.456-1.392-.296-.312-.716-.468-1.26-.468-.408 0-.764.08-1.068.24a1.68 1.68 0 0 0-.708.708c-.16.312-.24.7-.24 1.164V68h-1.152v-6.36h1.104v1.716l-.18-.456c.208-.416.528-.74.96-.972s.936-.348 1.512-.348zM84.235 68v-6.36h1.152V68h-1.152zm.576-7.584c-.224 0-.412-.072-.564-.216a.72.72 0 0 1-.216-.528c0-.216.072-.396.216-.54.152-.144.34-.216.564-.216s.408.072.552.216a.66.66 0 0 1 .228.516c0 .216-.072.4-.216.552-.144.144-.332.216-.564.216zm6.087 7.656c-.68 0-1.28-.14-1.8-.42a3.08 3.08 0 0 1-1.2-1.152c-.28-.488-.42-1.048-.42-1.68s.136-1.192.408-1.68a3 3 0 0 1 1.14-1.14c.488-.28 1.036-.42 1.644-.42.616 0 1.16.136 1.632.408s.84.656 1.104 1.152c.272.488.408 1.06.408 1.716 0 .048-.004.104-.012.168 0 .064-.004.124-.012.18h-5.412v-.828h4.812l-.468.288c.008-.408-.076-.772-.252-1.092a1.87 1.87 0 0 0-.732-.744c-.304-.184-.66-.276-1.068-.276-.4 0-.756.092-1.068.276-.312.176-.556.428-.732.756-.176.32-.264.688-.264 1.104v.192c0 .424.096.804.288 1.14.2.328.476.584.828.768s.756.276 1.212.276c.376 0 .716-.064 1.02-.192.312-.128.584-.32.816-.576l.636.744c-.288.336-.648.592-1.08.768-.424.176-.9.264-1.428.264zm16.654-6.492c.512 0 .964.1 1.356.3s.696.504.912.912c.224.408.336.924.336 1.548V68h-1.152v-3.528c0-.616-.144-1.08-.432-1.392s-.692-.468-1.212-.468c-.384 0-.72.08-1.008.24s-.512.396-.672.708c-.152.312-.228.7-.228 1.164V68h-1.152v-3.528c0-.616-.144-1.08-.432-1.392-.28-.312-.684-.468-1.212-.468-.376 0-.708.08-.996.24s-.512.396-.672.708-.24.7-.24 1.164V68h-1.152v-6.36h1.104v1.692l-.18-.432a2.17 2.17 0 0 1 .924-.972c.416-.232.9-.348 1.452-.348.608 0 1.132.152 1.572.456.44.296.728.748.864 1.356l-.468-.192a2.39 2.39 0 0 1 1.008-1.176c.48-.296 1.04-.444 1.68-.444zm8.036 6.492c-.68 0-1.28-.14-1.8-.42a3.08 3.08 0 0 1-1.2-1.152c-.28-.488-.42-1.048-.42-1.68s.136-1.192.408-1.68a3 3 0 0 1 1.14-1.14c.488-.28 1.036-.42 1.644-.42.616 0 1.16.136 1.632.408s.84.656 1.104 1.152c.272.488.408 1.06.408 1.716 0 .048-.004.104-.012.168 0 .064-.004.124-.012.18h-5.412v-.828h4.812l-.468.288c.008-.408-.076-.772-.252-1.092a1.87 1.87 0 0 0-.732-.744c-.304-.184-.66-.276-1.068-.276-.4 0-.756.092-1.068.276-.312.176-.556.428-.732.756-.176.32-.264.688-.264 1.104v.192c0 .424.096.804.288 1.14.2.328.476.584.828.768s.756.276 1.212.276c.376 0 .716-.064 1.02-.192.312-.128.584-.32.816-.576l.636.744c-.288.336-.648.592-1.08.768-.424.176-.9.264-1.428.264zm8.368 0c-.544 0-1.036-.12-1.476-.36-.432-.248-.776-.612-1.032-1.092-.248-.48-.372-1.08-.372-1.8s.128-1.32.384-1.8c.264-.48.612-.84 1.044-1.08.44-.24.924-.36 1.452-.36.624 0 1.176.136 1.656.408a3 3 0 0 1 1.14 1.14c.28.48.42 1.044.42 1.692s-.14 1.216-.42 1.704a3 3 0 0 1-1.14 1.14c-.48.272-1.032.408-1.656.408zM120.585 68v-8.904h1.152v4.236l-.12 1.476.072 1.476V68h-1.104zm3.276-.936a2.15 2.15 0 0 0 1.092-.276c.328-.184.584-.444.768-.78.192-.344.288-.74.288-1.188 0-.456-.096-.848-.288-1.176-.184-.336-.44-.596-.768-.78a2.15 2.15 0 0 0-1.092-.276c-.4 0-.764.092-1.092.276-.32.184-.576.444-.768.78-.184.328-.276.72-.276 1.176a2.48 2.48 0 0 0 .276 1.188c.192.336.448.596.768.78.328.184.692.276 1.092.276zm5.383.936v-8.904h1.152V68h-1.152zm3.832 0v-6.36h1.152V68h-1.152zm.576-7.584c-.224 0-.412-.072-.564-.216a.72.72 0 0 1-.216-.528c0-.216.072-.396.216-.54.152-.144.34-.216.564-.216s.408.072.552.216a.66.66 0 0 1 .228.516c0 .216-.072.4-.216.552-.144.144-.332.216-.564.216z"/></svg>